<?xml version="1.0" encoding="UTF-8" standalone="no"?>
<!-- Created with Inkscape (http://www.inkscape.org/) -->

<svg
   xmlns:dc="http://purl.org/dc/elements/1.1/"
   xmlns:cc="http://creativecommons.org/ns#"
   xmlns:rdf="http://www.w3.org/1999/02/22-rdf-syntax-ns#"
   xmlns:svg="http://www.w3.org/2000/svg"
   xmlns="http://www.w3.org/2000/svg"
   xmlns:sodipodi="http://sodipodi.sourceforge.net/DTD/sodipodi-0.dtd"
   xmlns:inkscape="http://www.inkscape.org/namespaces/inkscape"
   width="200"
   height="200"
   id="svg5099"
   version="1.1"
   inkscape:version="0.48.4 r9939"
   sodipodi:docname="New document 5">
  <defs
     id="defs5101" />
  <sodipodi:namedview
     id="base"
     pagecolor="#ffffff"
     bordercolor="#666666"
     borderopacity="1.0"
     inkscape:pageopacity="1"
     inkscape:pageshadow="2"
     inkscape:zoom="1.979899"
     inkscape:cx="77.250213"
     inkscape:cy="88.96627"
     inkscape:document-units="px"
     inkscape:current-layer="layer1"
     showgrid="false"
     inkscape:window-width="1600"
     inkscape:window-height="837"
     inkscape:window-x="-8"
     inkscape:window-y="-8"
     inkscape:window-maximized="1" />
  <metadata
     id="metadata5104">
    <rdf:RDF>
      <cc:Work
         rdf:about="">
        <dc:format>image/svg+xml</dc:format>
        <dc:type
           rdf:resource="http://purl.org/dc/dcmitype/StillImage" />
        <dc:title></dc:title>
      </cc:Work>
    </rdf:RDF>
  </metadata>
  <g
     inkscape:label="Layer 1"
     inkscape:groupmode="layer"
     id="layer1"
     transform="translate(0,-852.36218)">
    <path
       sodipodi:type="star"
       style="fill:#55bcd0;fill-opacity:1;fill-rule:evenodd;stroke:#000000;stroke-width:1;stroke-linecap:round;stroke-miterlimit:0;stroke-opacity:1;stroke-dasharray:none"
       id="path5107"
       sodipodi:sides="5"
       sodipodi:cx="44.446712"
       sodipodi:cy="124.23856"
       sodipodi:r1="11.52858"
       sodipodi:r2="5.7642901"
       sodipodi:arg1="1.0679531"
       sodipodi:arg2="1.6962716"
       inkscape:flatsided="false"
       inkscape:rounded="0"
       inkscape:randomized="0"
       d="m 50.002551,134.34009 -6.277218,-4.38255 -7.168893,2.68648 2.228287,-7.32427 -4.77031,-5.98785 7.654376,-0.1441 4.220679,-6.38718 2.502377,7.23521 7.378833,2.04036 -6.107821,4.61571 z"
       transform="translate(0,852.36218)"
       inkscape:transform-center-x="-0.44583721"
       inkscape:transform-center-y="-0.66821027" />
    <path
       sodipodi:type="star"
       style="fill:#55bcd0;fill-opacity:1;fill-rule:evenodd;stroke:#000000;stroke-width:1;stroke-linecap:round;stroke-miterlimit:0;stroke-opacity:1;stroke-dasharray:none"
       id="path5617"
       sodipodi:sides="5"
       sodipodi:cx="107.07617"
       sodipodi:cy="134.84516"
       sodipodi:r1="6.86978"
       sodipodi:r2="3.4348901"
       sodipodi:arg1="1.2722974"
       sodipodi:arg2="1.9006159"
       inkscape:flatsided="false"
       inkscape:rounded="0"
       inkscape:randomized="0"
       d="m 109.09648,141.41115 -3.13277,-3.31624 -4.50786,0.70067 2.18585,-4.00422 -2.05938,-4.0707 4.4837,0.8415 3.23508,-3.21651 0.58523,4.52429 4.05878,2.08279 -4.12201,1.95467 z"
       transform="translate(0,852.36218)"
       inkscape:transform-center-x="-0.62430861"
       inkscape:transform-center-y="0.033243631" />
    <path
       sodipodi:type="star"
       style="fill:#55bcd0;fill-opacity:1;fill-rule:evenodd;stroke:#000000;stroke-width:1;stroke-linecap:round;stroke-miterlimit:0;stroke-opacity:1;stroke-dasharray:none"
       id="path5619"
       sodipodi:sides="5"
       sodipodi:cx="156.06857"
       sodipodi:cy="153.53298"
       sodipodi:r1="6.7763093"
       sodipodi:r2="3.3881547"
       sodipodi:arg1="-0.46364761"
       sodipodi:arg2="0.16467092"
       inkscape:flatsided="false"
       inkscape:rounded="0"
       inkscape:randomized="0"
       d="m 162.12949,150.50252 -2.7186,3.58587 1.41275,4.27239 -4.25046,-1.47744 -3.62673,2.66384 0.0917,-4.49898 -3.65419,-2.62605 4.30711,-1.30308 1.36832,-4.28683 2.57028,3.69363 z"
       transform="translate(0,852.36218)"
       inkscape:transform-center-x="0.31186325"
       inkscape:transform-center-y="-0.34326377" />
    <path
       sodipodi:type="star"
       style="fill:#55bcd0;fill-opacity:1;fill-rule:evenodd;stroke:#000000;stroke-width:1;stroke-linecap:round;stroke-miterlimit:0;stroke-opacity:1;stroke-dasharray:none"
       id="path5621"
       sodipodi:sides="5"
       sodipodi:cx="168.69548"
       sodipodi:cy="102.0152"
       sodipodi:r1="7.9859571"
       sodipodi:r2="3.9929786"
       sodipodi:arg1="-2.176341"
       sodipodi:arg2="-1.5480225"
       inkscape:flatsided="false"
       inkscape:rounded="0"
       inkscape:randomized="0"
       d="m 164.14979,95.449206 4.63662,2.574049 4.74901,-2.360265 -1.01528,5.20511 3.71227,3.78721 -5.26409,0.64288 -2.45469,4.70089 -2.23812,-4.80778 -5.22935,-0.8819 3.88085,-3.61426 z"
       transform="translate(0,852.36218)"
       inkscape:transform-center-x="0.05619641"
       inkscape:transform-center-y="0.70894733" />
    <path
       sodipodi:type="star"
       style="fill:#55bcd0;fill-opacity:1;fill-rule:evenodd;stroke:#000000;stroke-width:1;stroke-linecap:round;stroke-miterlimit:0;stroke-opacity:1;stroke-dasharray:none"
       id="path5623"
       sodipodi:sides="5"
       sodipodi:cx="130.30968"
       sodipodi:cy="90.398449"
       sodipodi:r1="9.9616612"
       sodipodi:r2="4.9808307"
       sodipodi:arg1="2.1025204"
       sodipodi:arg2="2.7308389"
       inkscape:flatsided="false"
       inkscape:rounded="0"
       inkscape:randomized="0"
       d="m 125.25891,98.984749 0.48424,-6.597448 -5.1603,-4.139098 6.42419,-1.578186 2.34189,-6.186788 3.48613,5.622075 6.60767,0.315453 -4.26964,5.05282 1.74187,6.381748 -6.12491,-2.49926 z"
       transform="translate(0,852.36218)"
       inkscape:transform-center-x="0.29688673"
       inkscape:transform-center-y="-0.66446355" />
    <path
       sodipodi:type="star"
       style="fill:#55bcd0;fill-opacity:1;fill-rule:evenodd;stroke:#000000;stroke-width:1;stroke-linecap:round;stroke-miterlimit:0;stroke-opacity:1;stroke-dasharray:none"
       id="path5625"
       sodipodi:sides="5"
       sodipodi:cx="82.832509"
       sodipodi:cy="91.913678"
       sodipodi:r1="10.025478"
       sodipodi:r2="5.012739"
       sodipodi:arg1="-2.427502"
       sodipodi:arg2="-1.7991834"
       inkscape:flatsided="false"
       inkscape:rounded="0"
       inkscape:randomized="0"
       d="m 75.256367,85.347689 6.441227,1.683419 5.038389,-4.351772 0.389422,6.646176 5.69573,3.447022 -6.200551,2.424143 -1.518235,6.482153 -4.221573,-5.147977 -6.634051,0.559167 3.591475,-5.605766 z"
       transform="translate(0,852.36218)"
       inkscape:transform-center-x="-0.701418"
       inkscape:transform-center-y="0.26540017" />
    <path
       sodipodi:type="star"
       style="fill:#55bcd0;fill-opacity:1;fill-rule:evenodd;stroke:#000000;stroke-width:1;stroke-linecap:round;stroke-miterlimit:0;stroke-opacity:1;stroke-dasharray:none"
       id="path5627"
       sodipodi:sides="5"
       sodipodi:cx="46.972093"
       sodipodi:cy="83.327381"
       sodipodi:r1="9.3131463"
       sodipodi:r2="4.6565732"
       sodipodi:arg1="-2.2794226"
       sodipodi:arg2="-1.6511041"
       inkscape:flatsided="false"
       inkscape:rounded="0"
       inkscape:randomized="0"
       d="m 40.911176,76.256309 5.687358,2.429503 5.225617,-3.307788 -0.553104,6.159757 4.760698,3.947694 -6.029195,1.377436 -2.283344,5.747597 -3.173144,-5.308454 -6.171882,-0.395484 4.068085,-4.658241 z"
       transform="translate(0,852.36218)"
       inkscape:transform-center-x="-0.23087095"
       inkscape:transform-center-y="0.66688878" />
    <path
       sodipodi:type="star"
       style="fill:#55bcd0;fill-opacity:1;fill-rule:evenodd;stroke:#000000;stroke-width:1;stroke-linecap:round;stroke-miterlimit:0;stroke-opacity:1;stroke-dasharray:none"
       id="path5629"
       sodipodi:sides="5"
       sodipodi:cx="33.84011"
       sodipodi:cy="60.093872"
       sodipodi:r1="8.601139"
       sodipodi:r2="4.3005695"
       sodipodi:arg1="-0.70225693"
       sodipodi:arg2="-0.073938401"
       inkscape:flatsided="false"
       inkscape:rounded="0"
       inkscape:randomized="0"
       d="m 40.406102,54.538033 -2.277172,5.238151 3.024101,4.845468 -5.685463,-0.547041 -3.673816,4.373422 -1.236637,-5.576241 -5.294643,-2.142545 4.921179,-2.899265 0.401546,-5.697588 4.278093,3.784397 z"
       transform="translate(0,852.36218)"
       inkscape:transform-center-x="0.63235956"
       inkscape:transform-center-y="0.19634173" />
    <path
       sodipodi:type="star"
       style="fill:#55bcd0;fill-opacity:1;fill-rule:evenodd;stroke:#000000;stroke-width:1;stroke-linecap:round;stroke-miterlimit:0;stroke-opacity:1;stroke-dasharray:none"
       id="path5631"
       sodipodi:sides="5"
       sodipodi:cx="88.388348"
       sodipodi:cy="52.012652"
       sodipodi:r1="14.647212"
       sodipodi:r2="7.323606"
       sodipodi:arg1="0"
       sodipodi:arg2="0.62831853"
       inkscape:flatsided="false"
       inkscape:rounded="0"
       inkscape:randomized="0"
       d="m 103.03556,52.012653 -8.722287,4.304708 -1.398684,9.625619 -6.789356,-6.965163 -9.586725,1.644252 4.526237,-8.609416 -4.526237,-8.609415 9.586725,1.644252 6.789356,-6.965163 1.398684,9.625619 z"
       transform="translate(0,852.36218)"
       inkscape:transform-center-x="-1.3986843" />
    <path
       sodipodi:type="star"
       style="fill:#55bcd0;fill-opacity:1;fill-rule:evenodd;stroke:#000000;stroke-width:1;stroke-linecap:round;stroke-miterlimit:0;stroke-opacity:1;stroke-dasharray:none"
       id="path5633"
       sodipodi:sides="5"
       sodipodi:cx="148.49242"
       sodipodi:cy="65.144635"
       sodipodi:r1="8.8207779"
       sodipodi:r2="4.4103889"
       sodipodi:arg1="1.3397057"
       sodipodi:arg2="1.9680242"
       inkscape:flatsided="false"
       inkscape:rounded="0"
       inkscape:randomized="0"
       d="m 150.51272,73.730935 -3.72652,-4.519314 -5.83553,0.507753 3.14657,-4.94068 -2.28618,-5.393011 5.6712,1.465807 4.42259,-3.840817 0.35844,5.846597 5.01949,3.019256 -5.44968,2.147589 z"
       transform="translate(0,852.36218)"
       inkscape:transform-center-x="-0.62430861"
       inkscape:transform-center-y="0.2261656" />
    <path
       sodipodi:type="star"
       style="fill:#55bcd0;fill-opacity:1;fill-rule:evenodd;stroke:#000000;stroke-width:1;stroke-linecap:round;stroke-miterlimit:0;stroke-opacity:1;stroke-dasharray:none"
       id="path5635"
       sodipodi:sides="5"
       sodipodi:cx="166.67517"
       sodipodi:cy="80.802"
       sodipodi:r1="4.0720551"
       sodipodi:r2="2.0360275"
       sodipodi:arg1="0.12435499"
       sodipodi:arg2="0.75267353"
       inkscape:flatsided="false"
       inkscape:rounded="0"
       inkscape:randomized="0"
       d="m 170.71578,81.307078 -2.55459,0.886737 -0.71776,2.607113 -1.63275,-2.15554 -2.70131,0.12301 1.5455,-2.218934 -0.95174,-2.531088 2.58791,0.784163 2.1131,-1.687308 0.0539,2.703573 z"
       transform="translate(0,852.36218)"
       inkscape:transform-center-x="-0.23740575"
       inkscape:transform-center-y="0.15607715" />
    <path
       sodipodi:type="star"
       style="fill:#55bcd0;fill-opacity:1;fill-rule:evenodd;stroke:#000000;stroke-width:1;stroke-linecap:round;stroke-miterlimit:0;stroke-opacity:1;stroke-dasharray:none"
       id="path5637"
       sodipodi:sides="5"
       sodipodi:cx="180.81731"
       sodipodi:cy="74.236008"
       sodipodi:r1="5.0507627"
       sodipodi:r2="2.5253813"
       sodipodi:arg1="-0.92729522"
       sodipodi:arg2="-0.29897669"
       inkscape:flatsided="false"
       inkscape:rounded="0"
       inkscape:randomized="0"
       d="m 183.84776,70.195398 -0.6171,3.296778 2.36596,2.377351 -3.32612,0.431858 -1.52987,2.984803 -1.43855,-3.029875 -3.31148,-0.532641 2.43705,-2.304424 -0.51673,-3.313994 2.94473,1.605663 z"
       transform="translate(0,852.36218)"
       inkscape:transform-center-x="0.023695625"
       inkscape:transform-center-y="0.45971346" />
    <path
       sodipodi:type="star"
       style="fill:#55bcd0;fill-opacity:1;fill-rule:evenodd;stroke:#000000;stroke-width:1;stroke-linecap:round;stroke-miterlimit:0;stroke-opacity:1;stroke-dasharray:none"
       id="path5639"
       sodipodi:sides="5"
       sodipodi:cx="184.35284"
       sodipodi:cy="54.032957"
       sodipodi:r1="9.5964492"
       sodipodi:r2="4.7982245"
       sodipodi:arg1="-1.5707963"
       sodipodi:arg2="-0.9424778"
       inkscape:flatsided="false"
       inkscape:rounded="0"
       inkscape:randomized="0"
       d="m 184.35284,44.436506 2.82033,5.714604 6.30644,0.91638 -4.56338,4.448198 1.07727,6.280958 -5.64066,-2.965466 -5.64065,2.965465 1.07727,-6.280957 -4.56338,-4.448199 6.30644,-0.916379 z"
       transform="translate(0,852.36218)"
       inkscape:transform-center-y="-0.91637935" />
    <path
       sodipodi:type="star"
       style="fill:#55bcd0;fill-opacity:1;fill-rule:evenodd;stroke:#000000;stroke-width:1;stroke-linecap:round;stroke-miterlimit:0;stroke-opacity:1;stroke-dasharray:none"
       id="path5641"
       sodipodi:sides="5"
       sodipodi:cx="173.24116"
       sodipodi:cy="28.274067"
       sodipodi:r1="15.559301"
       sodipodi:r2="7.7796502"
       sodipodi:arg1="-2.9123607"
       sodipodi:arg2="-2.2840422"
       inkscape:flatsided="false"
       inkscape:rounded="0"
       inkscape:randomized="0"
       d="m 158.08888,24.738533 10.06212,-2.347765 3.77034,-9.619924 5.34223,8.844152 10.31419,0.613086 -6.76045,7.813752 2.60418,9.998832 -9.52041,-4.014988 -8.70472,5.566532 0.87651,-10.295151 z"
       transform="translate(0,852.36218)"
       inkscape:transform-center-x="0.40784742"
       inkscape:transform-center-y="-1.0925401" />
    <path
       sodipodi:type="star"
       style="fill:#55bcd0;fill-opacity:1;fill-rule:evenodd;stroke:#000000;stroke-width:1;stroke-linecap:round;stroke-miterlimit:0;stroke-opacity:1;stroke-dasharray:none"
       id="path5643"
       sodipodi:sides="5"
       sodipodi:cx="131.82491"
       sodipodi:cy="30.294372"
       sodipodi:r1="4.1649656"
       sodipodi:r2="2.0824827"
       sodipodi:arg1="-2.896614"
       sodipodi:arg2="-2.2682955"
       inkscape:flatsided="false"
       inkscape:rounded="0"
       inkscape:randomized="0"
       d="m 127.7843,29.28422 2.70302,-0.585968 1.04968,-2.558882 1.39257,2.389655 2.75801,0.207567 -1.84237,2.062857 0.65486,2.687165 -2.53121,-1.11474 -2.35328,1.453193 0.27799,-2.751804 z"
       transform="translate(0,852.36218)"
       inkscape:transform-center-x="0.088967554"
       inkscape:transform-center-y="-0.3121543" />
    <path
       sodipodi:type="star"
       style="fill:#55bcd0;fill-opacity:1;fill-rule:evenodd;stroke:#000000;stroke-width:1;stroke-linecap:round;stroke-miterlimit:0;stroke-opacity:1;stroke-dasharray:none"
       id="path5645"
       sodipodi:sides="5"
       sodipodi:cx="93.944187"
       sodipodi:cy="22.213152"
       sodipodi:r1="8.9499744"
       sodipodi:r2="4.474987"
       sodipodi:arg1="-2.8555412"
       sodipodi:arg2="-2.2272227"
       inkscape:flatsided="false"
       inkscape:rounded="0"
       inkscape:randomized="0"
       d="m 85.357887,19.687771 5.855257,-1.019606 2.479508,-5.401452 2.779077,5.253605 5.903291,0.689012 -4.137688,4.266512 1.168929,5.827285 -5.336312,-2.616756 -5.180858,2.912448 0.839672,-5.883756 z"
       transform="translate(0,852.36218)"
       inkscape:transform-center-x="0.077727408"
       inkscape:transform-center-y="-0.78038576" />
    <path
       sodipodi:type="star"
       style="fill:#55bcd0;fill-opacity:1;fill-rule:evenodd;stroke:#000000;stroke-width:1;stroke-linecap:round;stroke-miterlimit:0;stroke-opacity:1;stroke-dasharray:none"
       id="path5647"
       sodipodi:sides="5"
       sodipodi:cx="64.144687"
       sodipodi:cy="33.32483"
       sodipodi:r1="15.851672"
       sodipodi:r2="7.9258357"
       sodipodi:arg1="-2.7492525"
       sodipodi:arg2="-2.120934"
       inkscape:flatsided="false"
       inkscape:rounded="0"
       inkscape:randomized="0"
       d="m 49.497472,27.263914 10.503549,-0.695484 5.381699,-9.046853 3.907219,9.774552 10.267105,2.322669 -8.088755,6.736488 0.963721,10.482342 -8.906344,-5.611173 -9.671493,4.155775 2.584331,-10.204385 z"
       transform="translate(0,852.36218)"
       inkscape:transform-center-x="-0.38257403"
       inkscape:transform-center-y="-1.1452268" />
    <path
       sodipodi:type="star"
       style="fill:#55bcd0;fill-opacity:1;fill-rule:evenodd;stroke:#000000;stroke-width:1;stroke-linecap:round;stroke-miterlimit:0;stroke-opacity:1;stroke-dasharray:none"
       id="path5649"
       sodipodi:sides="5"
       sodipodi:cx="40.911178"
       sodipodi:cy="178.28172"
       sodipodi:r1="11.077187"
       sodipodi:r2="5.5385935"
       sodipodi:arg1="1.9936503"
       sodipodi:arg2="2.6219688"
       inkscape:flatsided="false"
       inkscape:rounded="0"
       inkscape:randomized="0"
       d="m 36.365492,188.38325 -0.261846,-7.35132 -6.204282,-3.95187 6.910601,-2.52071 1.841224,-7.12182 4.532833,5.79343 7.342221,-0.44965 -4.109157,6.10124 2.696519,6.84392 -7.072432,-2.02265 z"
       transform="translate(0,852.36218)"
       inkscape:transform-center-x="0.69837535"
       inkscape:transform-center-y="-0.37133388" />
    <path
       sodipodi:type="star"
       style="fill:#55bcd0;fill-opacity:1;fill-rule:evenodd;stroke:#000000;stroke-width:1;stroke-linecap:round;stroke-miterlimit:0;stroke-opacity:1;stroke-dasharray:none"
       id="path5651"
       sodipodi:sides="5"
       sodipodi:cx="83.842661"
       sodipodi:cy="187.87817"
       sodipodi:r1="3.072259"
       sodipodi:r2="1.5361295"
       sodipodi:arg1="1.735945"
       sodipodi:arg2="2.3642635"
       inkscape:flatsided="false"
       inkscape:rounded="0"
       inkscape:randomized="0"
       d="m 83.337583,190.90863 -0.589861,-1.95305 -1.943277,-0.6213 1.675184,-1.16452 -0.0096,-2.04015 1.625181,1.23334 1.937336,-0.63959 -0.670767,1.92676 1.206952,1.64487 -2.039737,-0.0425 z"
       transform="translate(0,852.36218)"
       inkscape:transform-center-x="0.15607715"
       inkscape:transform-center-y="0.14094476" />
    <path
       sodipodi:type="star"
       style="fill:#55bcd0;fill-opacity:1;fill-rule:evenodd;stroke:#000000;stroke-width:1;stroke-linecap:round;stroke-miterlimit:0;stroke-opacity:1;stroke-dasharray:none"
       id="path5653"
       sodipodi:sides="5"
       sodipodi:cx="116.67262"
       sodipodi:cy="190.90863"
       sodipodi:r1="7.6431909"
       sodipodi:r2="3.8215955"
       sodipodi:arg1="0.13255153"
       sodipodi:arg2="0.76087006"
       inkscape:flatsided="false"
       inkscape:rounded="0"
       inkscape:randomized="0"
       d="m 124.24877,191.91878 -4.80841,1.62504 -1.38729,4.88231 -3.03138,-4.07091 -5.07205,0.18933 2.93491,-4.141 -1.7474,-4.7653 4.84525,1.51163 3.99209,-3.13444 0.0596,5.07523 z"
       transform="translate(0,852.36218)"
       inkscape:transform-center-x="-0.426581"
       inkscape:transform-center-y="0.3121543" />
    <path
       sodipodi:type="star"
       style="fill:#55bcd0;fill-opacity:1;fill-rule:evenodd;stroke:#000000;stroke-width:1;stroke-linecap:round;stroke-miterlimit:0;stroke-opacity:1;stroke-dasharray:none"
       id="path5655"
       sodipodi:sides="5"
       sodipodi:cx="153.03811"
       sodipodi:cy="187.37309"
       sodipodi:r1="5.4632352"
       sodipodi:r2="2.7316176"
       sodipodi:arg1="-0.5880026"
       sodipodi:arg2="0.040315927"
       inkscape:flatsided="false"
       inkscape:rounded="0"
       inkscape:randomized="0"
       d="m 157.5838,184.34263 -1.81629,3.14056 1.55744,3.27664 -3.54811,-0.7569 -2.635,2.49374 -0.37657,-3.60835 -3.18595,-1.73542 3.31538,-1.47318 0.66597,-3.5663 2.42559,2.69788 z"
       transform="translate(0,852.36218)"
       inkscape:transform-center-x="0.45655472"
       inkscape:transform-center-y="-0.068044223" />
    <path
       sodipodi:type="spiral"
       style="fill:none;stroke:#000000;stroke-width:1px;stroke-linecap:butt;stroke-linejoin:miter;stroke-opacity:1"
       id="path5657"
       sodipodi:cx="70.710678"
       sodipodi:cy="166.66496"
       sodipodi:expansion="1"
       sodipodi:revolution="3"
       sodipodi:radius="3.6421568"
       sodipodi:argument="-17.866762"
       sodipodi:t0="0"
       d="m 70.710678,166.66496 c 0.101295,0.15195 -0.15484,0.21151 -0.252538,0.16836 -0.264756,-0.11693 -0.23832,-0.48071 -0.08418,-0.67343 0.27572,-0.34474 0.801024,-0.28652 1.094332,0 0.430439,0.42047 0.337104,1.12602 -0.08418,1.51523 -0.561505,0.51874 -1.452742,0.38876 -1.936126,-0.16836 -0.608288,-0.70109 -0.440997,-1.78029 0.252539,-2.35703 0.839964,-0.6985 2.108292,-0.49355 2.777919,0.33672 0.789132,0.97845 0.546328,2.43659 -0.420897,3.19882 -1.116699,0.88001 -2.765089,0.59923 -3.619713,-0.50508 -0.971078,-1.25479 -0.652242,-3.09372 0.589256,-4.04061 1.392772,-1.06226 3.422454,-0.70532 4.461507,0.67344 1.153545,1.53067 0.758446,3.75126 -0.757615,4.8824"
       transform="translate(0,852.36218)" />
    <path
       sodipodi:type="spiral"
       style="fill:none;stroke:#000000;stroke-width:1px;stroke-linecap:butt;stroke-linejoin:miter;stroke-opacity:1"
       id="path5659"
       sodipodi:cx="107.58125"
       sodipodi:cy="168.18019"
       sodipodi:expansion="1"
       sodipodi:revolution="3"
       sodipodi:radius="9.4356031"
       sodipodi:argument="-20.149405"
       sodipodi:t0="0"
       d="m 107.58125,168.18019 c 0.12662,-0.45583 0.67692,-0.0542 0.75762,0.21045 0.21869,0.71721 -0.53963,1.28099 -1.17852,1.30478 -1.14281,0.0426 -1.91759,-1.08637 -1.85194,-2.14658 0.0963,-1.5559 1.63827,-2.56682 3.11464,-2.39911 1.96777,0.22355 3.22107,2.1917 2.94627,4.08271 -0.34579,2.37963 -2.74579,3.87781 -5.05076,3.49344 -2.79163,-0.46554 -4.53601,-3.30025 -4.04061,-6.01883 0.58382,-3.20376 3.85492,-5.19511 6.9869,-4.58777 3.61598,0.70119 5.8548,4.40974 5.13493,7.95495 -0.81796,4.0283 -4.96467,6.51493 -8.92302,5.6821 -4.44067,-0.9343 -7.175346,-5.51966 -6.229263,-9.89108 1.050333,-4.8531 6.074723,-7.836 10.859143,-6.77643"
       transform="translate(0,852.36218)" />
    <path
       sodipodi:type="spiral"
       style="fill:none;stroke:#000000;stroke-width:1px;stroke-linecap:butt;stroke-linejoin:miter;stroke-opacity:1"
       id="path5661"
       sodipodi:cx="80.812202"
       sodipodi:cy="146.46191"
       sodipodi:expansion="1"
       sodipodi:revolution="3"
       sodipodi:radius="9.035079"
       sodipodi:argument="-21.5275"
       sodipodi:t0="0"
       d="m 80.812202,146.46191 c -0.405179,-0.20259 0.07319,-0.64612 0.336719,-0.67343 0.714155,-0.074 1.10495,0.74207 1.010151,1.34687 -0.169574,1.08185 -1.372649,1.60299 -2.357024,1.34687 -1.44461,-0.37587 -2.11195,-2.0104 -1.683585,-3.36718 0.570944,-1.80837 2.650504,-2.62533 4.37733,-2.0203 2.173033,0.76137 3.140955,3.29169 2.357018,5.38748 -0.949453,2.53828 -3.933484,3.65787 -6.397635,2.69374 -2.903916,-1.1362 -4.175587,-4.57565 -3.030452,-7.40779 1.322104,-3.26982 5.218059,-4.69385 8.417941,-3.36717 3.635909,1.50746 5.212481,5.86065 3.703885,9.42809 -1.692417,4.00214 -6.503361,5.7314 -10.438246,4.04061 -4.368469,-1.8771 -6.250508,-7.14618 -4.377319,-11.4484"
       transform="translate(0,852.36218)" />
    <path
       sodipodi:type="spiral"
       style="fill:none;stroke:#000000;stroke-width:1px;stroke-linecap:butt;stroke-linejoin:miter;stroke-opacity:1"
       id="path5663"
       sodipodi:cx="30.304577"
       sodipodi:cy="145.95683"
       sodipodi:expansion="1"
       sodipodi:revolution="3"
       sodipodi:radius="7.8571429"
       sodipodi:argument="-16.493361"
       sodipodi:t0="0"
       d="m 30.304577,145.95683 c -0.278561,0.27856 -0.512927,-0.23806 -0.462986,-0.46298 0.135335,-0.60953 0.916068,-0.70752 1.38896,-0.46299 0.845893,0.43741 0.944988,1.57326 0.462984,2.31493 -0.70736,1.08844 -2.239362,1.1895 -3.240906,0.46299 -1.334901,-0.96833 -1.43701,-2.90863 -0.462983,-4.16688 1.225714,-1.58338 3.57941,-1.68607 5.092853,-0.46298 1.832982,1.48132 1.936032,4.25103 0.462981,6.01882 -1.735939,2.08328 -4.923195,2.18656 -6.944799,0.46298 -2.334022,-1.98993 -2.437456,-5.5957 -0.46298,-7.87077 2.243526,-2.58507 6.268466,-2.68862 8.796746,-0.46298 2.836348,2.49683 2.939973,6.94141 0.462978,9.72272 -2.749935,3.08778 -7.614483,3.19147 -10.648692,0.46298"
       transform="translate(0,852.36218)" />
    <path
       sodipodi:type="spiral"
       style="fill:none;stroke:#000000;stroke-width:1px;stroke-linecap:butt;stroke-linejoin:miter;stroke-opacity:1"
       id="path5665"
       sodipodi:cx="17.67767"
       sodipodi:cy="107.06596"
       sodipodi:expansion="1"
       sodipodi:revolution="3"
       sodipodi:radius="4.6565733"
       sodipodi:argument="-19.558182"
       sodipodi:t0="0"
       d="m 17.67767,107.06596 c 0.177266,-0.15194 0.292271,0.16399 0.252538,0.29463 -0.107677,0.35403 -0.573473,0.37644 -0.841794,0.21045 -0.479964,-0.29692 -0.486891,-0.97261 -0.168359,-1.38896 0.46746,-0.61102 1.377328,-0.6011 1.936126,-0.12627 0.74479,0.63287 0.716933,1.78406 0.08418,2.48329 -0.796257,0.87992 -2.191746,0.83362 -3.030458,0.0421 -1.015793,-0.95864 -0.950791,-2.59998 10e-7,-3.57762 1.120477,-1.15212 3.00855,-1.06828 4.12479,0.0421 1.288744,1.28196 1.185966,3.41735 -0.08418,4.67196 -1.443223,1.42556 -3.826303,1.3038 -5.219122,-0.12628 -1.562532,-1.60432 -1.42174,-4.23537 0.168361,-5.76628 1.765315,-1.69961 4.644534,-1.53976 6.313454,0.21045"
       transform="translate(0,852.36218)" />
    <path
       sodipodi:type="spiral"
       style="fill:none;stroke:#000000;stroke-width:1px;stroke-linecap:butt;stroke-linejoin:miter;stroke-opacity:1"
       id="path5667"
       sodipodi:cx="60.104076"
       sodipodi:cy="110.6015"
       sodipodi:expansion="1"
       sodipodi:revolution="3"
       sodipodi:radius="11.350178"
       sodipodi:argument="-19.213535"
       sodipodi:t0="0"
       d="m 60.104076,110.6015 c 0.531798,-0.20259 0.535458,0.6169 0.336718,0.88388 -0.538572,0.72351 -1.625621,0.39133 -2.104484,-0.21044 -0.856575,-1.07643 -0.316018,-2.63224 0.757613,-3.32509 1.575596,-1.01678 3.654773,-0.24472 4.545687,1.30478 1.187448,2.06524 0.17551,4.68325 -1.851944,5.76629 -2.551344,1.36289 -5.714629,0.10745 -6.98689,-2.39911 -1.540878,-3.03578 -0.04007,-6.74766 2.946275,-8.20749 3.519309,-1.72036 7.781722,0.0269 9.428092,3.49344 1.900799,4.00229 -0.09353,8.81647 -4.040605,10.64869 -4.484916,2.08189 -9.851707,-0.15999 -11.869295,-4.58777 -2.263428,-4.9673 0.226306,-10.88729 5.134936,-13.0899 5.449511,-2.445303 11.923142,0.29252 14.310498,5.68211"
       transform="translate(0,852.36218)" />
    <path
       sodipodi:type="spiral"
       style="fill:none;stroke:#000000;stroke-width:1px;stroke-linecap:butt;stroke-linejoin:miter;stroke-opacity:1"
       id="path5669"
       sodipodi:cx="133.34013"
       sodipodi:cy="129.7944"
       sodipodi:expansion="1"
       sodipodi:revolution="3"
       sodipodi:radius="8.9357119"
       sodipodi:argument="-16.53334"
       sodipodi:t0="0"
       d="m 133.34013,129.7944 c -0.30388,0.32921 -0.59369,-0.24721 -0.54716,-0.50507 0.12608,-0.6988 1.00882,-0.84564 1.55732,-0.58926 0.98112,0.4586 1.14536,1.74484 0.63134,2.60956 -0.75434,1.26902 -2.49066,1.4535 -3.6618,0.67344 -1.56095,-1.0397 -1.76518,-3.23995 -0.71553,-4.71405 1.32089,-1.855 3.99087,-2.07869 5.76629,-0.75761 2.15027,1.6 2.39327,4.74272 0.79971,6.81853 -1.87796,2.44626 -5.49515,2.70851 -7.87078,0.84179 -2.74275,-2.15519 -3.02419,-6.24796 -0.88388,-8.92301 2.43195,-3.03957 7.00104,-3.34019 9.97525,-0.92598 3.33662,2.70838 3.65641,7.75432 0.96807,11.0275 -2.98457,3.63385 -8.50775,3.9728 -12.07974,1.01016"
       transform="translate(0,852.36218)" />
    <path
       sodipodi:type="spiral"
       style="fill:none;stroke:#000000;stroke-width:1px;stroke-linecap:butt;stroke-linejoin:miter;stroke-opacity:1"
       id="path5671"
       sodipodi:cx="133.34013"
       sodipodi:cy="159.08882"
       sodipodi:expansion="1"
       sodipodi:revolution="3"
       sodipodi:radius="6.5659914"
       sodipodi:argument="-16.883968"
       sodipodi:t0="0"
       d="m 133.34013,159.08882 c -0.12661,0.30389 -0.4721,-0.0207 -0.50507,-0.21045 -0.0894,-0.51406 0.48275,-0.83819 0.92597,-0.7997 0.79282,0.0688 1.2308,0.91502 1.09433,1.6415 -0.20027,1.06613 -1.35194,1.63168 -2.35702,1.38896 -1.33962,-0.32352 -2.03589,-1.79035 -1.68359,-3.07255 0.44334,-1.61352 2.22943,-2.44178 3.78807,-1.97822 1.88773,0.56144 2.84863,2.66888 2.27285,4.5036 -0.67855,2.16215 -3.10857,3.25609 -5.21912,2.56747 -2.43673,-0.79503 -3.66395,-3.5484 -2.8621,-5.93465 0.9111,-2.7114 3.98834,-4.07208 6.65017,-3.15672 2.98617,1.02689 4.48043,4.42836 3.45135,7.36569 -1.14247,3.261 -4.86844,4.88893 -8.08122,3.74599"
       transform="translate(0,852.36218)" />
    <path
       sodipodi:type="spiral"
       style="fill:none;stroke:#000000;stroke-width:1px;stroke-linecap:butt;stroke-linejoin:miter;stroke-opacity:1"
       id="path5673"
       sodipodi:cx="162.63457"
       sodipodi:cy="172.72588"
       sodipodi:expansion="1"
       sodipodi:revolution="3"
       sodipodi:radius="7.7096548"
       sodipodi:argument="-19.401211"
       sodipodi:t0="0"
       d="m 162.63457,172.72588 c 0.32921,-0.20259 0.4355,0.34381 0.33671,0.54716 -0.26771,0.55107 -1.03522,0.46716 -1.43104,0.12627 -0.70804,-0.60977 -0.54448,-1.71651 0.0842,-2.31493 0.92258,-0.8782 2.40792,-0.62649 3.19882,0.29463 1.05415,1.2277 0.71064,3.10301 -0.50508,4.0827 -1.52985,1.23283 -3.7999,0.79593 -4.96658,-0.71553 -1.413,-1.83058 -0.88189,-4.49782 0.92598,-5.85047 2.1305,-1.59405 5.19635,-0.96826 6.73435,1.13643 1.77567,2.42994 1.05491,5.89532 -1.34688,7.61823 -2.72906,1.95768 -6.59458,1.14176 -8.50211,-1.55732 -2.13997,-3.02796 -1.22875,-7.29406 1.76777,-9.386 3.3267,-2.32245 7.9937,-1.31585 10.26988,1.97822"
       transform="translate(0,852.36218)" />
    <path
       sodipodi:type="spiral"
       style="fill:none;stroke:#000000;stroke-width:1px;stroke-linecap:butt;stroke-linejoin:miter;stroke-opacity:1"
       id="path5675"
       sodipodi:cx="178.29193"
       sodipodi:cy="151.0076"
       sodipodi:expansion="1"
       sodipodi:revolution="3"
       sodipodi:radius="8.6307468"
       sodipodi:argument="-20.061581"
       sodipodi:t0="0"
       d="m 178.29193,151.0076 c 0.15194,-0.40518 0.62114,0.005 0.67344,0.25254 0.14172,0.67104 -0.59447,1.12391 -1.17852,1.09433 -1.04471,-0.0529 -1.6601,-1.14372 -1.51522,-2.10449 0.21261,-1.40996 1.69868,-2.20739 3.03046,-1.93612 1.77505,0.36156 2.75911,2.25545 2.35702,3.95643 -0.506,2.14052 -2.81302,3.31308 -4.88241,2.77792 -2.50631,-0.64815 -3.86832,-3.37103 -3.19881,-5.80838 0.78899,-2.87234 3.9293,-4.42437 6.73435,-3.61971 3.23854,0.92902 4.98096,4.48777 4.0406,7.66033 -1.06849,3.60486 -5.04636,5.53792 -8.5863,4.4615 -3.97127,-1.20759 -6.09515,-5.60506 -4.88239,-9.51228 1.34639,-4.33775 6.16381,-6.6526 10.43825,-5.30329"
       transform="translate(0,852.36218)" />
    <path
       sodipodi:type="spiral"
       style="fill:none;stroke:#000000;stroke-width:1px;stroke-linecap:butt;stroke-linejoin:miter;stroke-opacity:1"
       id="path5677"
       sodipodi:cx="174.25131"
       sodipodi:cy="128.27917"
       sodipodi:expansion="1"
       sodipodi:revolution="3"
       sodipodi:radius="16.043627"
       sodipodi:argument="-21.49934"
       sodipodi:t0="0"
       d="m 174.25131,128.27917 c -0.70906,-0.37985 0.16221,-1.14321 0.63135,-1.17851 1.27132,-0.0957 1.92418,1.37242 1.72568,2.4412 -0.35509,1.91181 -2.5166,2.77668 -4.25106,2.27285 -2.54539,-0.7394 -3.6482,-3.67404 -2.82001,-6.06091 1.10383,-3.18133 4.8359,-4.52745 7.87077,-3.36718 3.81906,1.46007 5.41061,5.99979 3.91434,9.68062 -1.81218,4.45798 -7.16482,6.29605 -11.49048,4.46152 -5.09764,-2.16194 -7.1829,-8.33055 -5.00868,-13.30034 2.51022,-5.73783 9.49673,-8.07069 15.11019,-5.55585 6.37837,2.85752 8.95914,10.66326 6.10302,16.92005 -3.20414,7.01918 -11.83002,9.84807 -18.72991,6.65018 -7.66018,-3.55026 -10.73736,-12.99696 -7.19735,-20.53976"
       transform="translate(0,852.36218)" />
    <path
       sodipodi:type="spiral"
       style="fill:none;stroke:#000000;stroke-width:1px;stroke-linecap:butt;stroke-linejoin:miter;stroke-opacity:1"
       id="path5679"
       sodipodi:cx="178.29193"
       sodipodi:cy="185.85786"
       sodipodi:expansion="1"
       sodipodi:revolution="3"
       sodipodi:radius="5.0507627"
       sodipodi:argument="-18.206055"
       sodipodi:t0="0"
       d="m 178.29193,185.85786 c 0.20259,0.15195 -0.10486,0.34805 -0.25254,0.33672 -0.40018,-0.0307 -0.53351,-0.51863 -0.42089,-0.84179 0.20145,-0.57806 0.91525,-0.74438 1.43105,-0.50508 0.75694,0.35119 0.96053,1.31691 0.58925,2.02031 -0.49485,0.93751 -1.72031,1.17888 -2.60956,0.67343 -1.11903,-0.63605 -1.39836,-2.12452 -0.75761,-3.19881 0.77602,-1.30111 2.5292,-1.61848 3.78807,-0.8418 1.48353,0.9153 1.83901,2.93417 0.92597,4.37733 -1.05414,1.66619 -3.33931,2.05981 -4.96658,1.01015 -1.84901,-1.19269 -2.28081,-3.7446 -1.09433,-5.55584 1.33104,-2.03193 4.14998,-2.50193 6.14509,-1.17851 2.21495,1.46925 2.72317,4.55545 1.26269,6.73435"
       transform="translate(0,852.36218)" />
    <path
       sodipodi:type="spiral"
       style="fill:none;stroke:#000000;stroke-width:1px;stroke-linecap:butt;stroke-linejoin:miter;stroke-opacity:1"
       id="path5681"
       sodipodi:cx="101.52033"
       sodipodi:cy="106.56089"
       sodipodi:expansion="1"
       sodipodi:revolution="3"
       sodipodi:radius="5.0507627"
       sodipodi:argument="-21.063854"
       sodipodi:t0="0"
       d="m 101.52033,106.56089 c -0.15194,-0.20259 0.19813,-0.30477 0.33672,-0.25254 0.37558,0.14154 0.36696,0.64727 0.16836,0.92597 -0.35525,0.49854 -1.08707,0.45834 -1.51523,0.0842 -0.628338,-0.54909 -0.553378,-1.53319 0,-2.10449 0.73756,-0.76145 1.98158,-0.65004 2.69374,0.0842 0.89617,0.92394 0.74756,2.43108 -0.16836,3.28299 -1.10929,1.03178 -2.8812,0.84557 -3.872249,-0.25253 -1.167911,-1.29408 -0.943887,-3.33172 0.336714,-4.46151 1.478505,-1.30438 3.782485,-1.04241 5.050765,0.42089 1.44109,1.66271 1.14108,4.23345 -0.50507,5.64002 -1.84674,1.57797 -4.68453,1.23987 -6.229278,-0.58925 -1.714963,-2.03066 -1.338719,-5.13571 0.673429,-6.81853"
       transform="translate(0,852.36218)" />
    <path
       sodipodi:type="spiral"
       style="fill:none;stroke:#000000;stroke-width:1px;stroke-linecap:butt;stroke-linejoin:miter;stroke-opacity:1"
       id="path5683"
       sodipodi:cx="106.06602"
       sodipodi:cy="67.670013"
       sodipodi:expansion="1"
       sodipodi:revolution="3"
       sodipodi:radius="7.8895435"
       sodipodi:argument="-19.544294"
       sodipodi:t0="0"
       d="m 106.06602,67.670013 c 0.30388,-0.253237 0.49128,0.284692 0.42089,0.505077 -0.19074,0.597227 -0.98038,0.624237 -1.43105,0.336717 -0.80612,-0.514305 -0.80196,-1.659164 -0.25253,-2.357022 0.8063,-1.024135 2.34749,-0.985924 3.28299,-0.168359 1.24687,1.089685 1.17259,3.039268 0.0842,4.208968 -1.36965,1.471949 -3.73269,1.360675 -5.13494,1e-6 -1.69832,-1.647958 -1.54958,-4.427039 0.0842,-6.060915 1.92532,-1.925466 5.12197,-1.738998 6.98689,0.168358 2.15312,2.202117 1.92876,5.817291 -0.25254,7.912861 -2.47853,2.381121 -6.51288,2.118766 -8.83883,-0.336716 -2.609371,-2.754679 -2.308949,-7.208673 0.42089,-9.764808 3.03064,-2.837793 7.90461,-2.499253 10.69078,0.505075"
       transform="translate(0,852.36218)" />
    <path
       sodipodi:type="spiral"
       style="fill:none;stroke:#000000;stroke-width:1px;stroke-linecap:butt;stroke-linejoin:miter;stroke-opacity:1"
       id="path5685"
       sodipodi:cx="133.34013"
       sodipodi:cy="54.538033"
       sodipodi:expansion="1"
       sodipodi:revolution="3"
       sodipodi:radius="17.202278"
       sodipodi:argument="-19.718096"
       sodipodi:t0="0"
       d="m 133.34013,54.538033 c 0.55713,-0.658417 1.1624,0.426149 1.09434,0.925972 -0.18446,1.354491 -1.87006,1.710231 -2.94628,1.262692 -1.92512,-0.800542 -2.34785,-3.260742 -1.43105,-4.966582 1.34543,-2.50339 4.6696,-3.002436 6.98688,-1.599412 3.08858,1.870011 3.66415,6.084827 1.76778,9.007193 -2.3864,3.677499 -7.50306,4.329514 -11.0275,1.936131 -4.26857,-2.898709 -4.997,-8.92298 -2.10449,-13.047803 3.40872,-4.860962 10.34395,-5.665808 15.06811,-2.27285 5.45422,3.917303 6.3355,11.765631 2.4412,17.088413 -4.42494,6.048082 -13.1878,7.005817 -19.10871,2.609569 -6.64238,-4.931925 -7.67658,-14.610334 -2.77793,-21.129023 5.43843,-7.23698 16.03314,-8.347682 23.14933,-2.946289"
       transform="translate(0,852.36218)" />
    <path
       sodipodi:type="spiral"
       style="fill:none;stroke:#000000;stroke-width:1px;stroke-linecap:butt;stroke-linejoin:miter;stroke-opacity:1"
       id="path5687"
       sodipodi:cx="25.75889"
       sodipodi:cy="12.111627"
       sodipodi:expansion="1"
       sodipodi:revolution="3"
       sodipodi:radius="15.714286"
       sodipodi:argument="-16.493361"
       sodipodi:t0="0"
       d="m 25.75889,12.111627 c -0.557122,0.557121 -1.025853,-0.476126 -0.925972,-0.925974 0.27067,-1.2190613 1.832136,-1.4150316 2.77792,-0.925971 1.691787,0.874815 1.889977,3.146515 0.925969,4.629867 -1.414721,2.176878 -4.478725,2.379 -6.481813,0.925967 -2.669801,-1.936664 -2.87402,-5.8172646 -0.925965,-8.3337595 2.451428,-3.166752 7.15882,-3.3721437 10.185705,-0.9259639 3.665964,2.9626516 3.872064,8.5020764 0.925962,12.0376524 -3.471878,4.166554 -9.84639,4.373111 -13.889598,0.92596 C 13.683055,15.539533 13.476187,8.3279926 17.425139,3.7778605 21.91219,-1.3922889 29.96207,-1.5993775 35.01863,2.8519033 40.691327,7.8455678 40.898577,16.734715 35.944586,22.297341 30.444717,28.47291 20.715621,28.680282 14.647202,23.223295"
       transform="translate(0,852.36218)" />
    <path
       sodipodi:type="spiral"
       style="fill:none;stroke:#000000;stroke-width:1px;stroke-linecap:butt;stroke-linejoin:miter;stroke-opacity:1"
       id="path5689"
       sodipodi:cx="21.213203"
       sodipodi:cy="57.568493"
       sodipodi:expansion="1"
       sodipodi:revolution="3"
       sodipodi:radius="12.906651"
       sodipodi:argument="-16.745052"
       sodipodi:t0="0"
       d="m 21.213203,57.568493 c -0.329207,0.557122 -0.913409,-0.168901 -0.925973,-0.547165 -0.03405,-1.025072 1.16794,-1.50035 2.020304,-1.304782 1.524679,0.349825 2.147,2.116319 1.68359,3.493442 -0.680071,2.020984 -3.076003,2.808495 -4.966581,2.0624 -2.519843,-0.994428 -3.476055,-4.039496 -2.441208,-6.439721 1.30225,-3.020438 5.004752,-4.1467 7.912859,-2.820016 3.522107,1.606792 4.819122,5.970993 3.198825,9.385998 -1.909464,4.024464 -6.937846,5.492658 -10.859136,3.577633 -4.527285,-2.210972 -6.166938,-7.905107 -3.956443,-12.332275 2.511706,-5.030429 8.872657,-6.841737 13.805414,-4.335251 5.533809,2.811899 7.516915,9.840415 4.71406,15.278553 -3.1117,6.037363 -10.808333,8.192375 -16.751692,5.092868"
       transform="translate(0,852.36218)" />
  </g>
</svg>
